<svg width="320" height="347" viewBox="0 0 320 347" fill="none" xmlns="http://www.w3.org/2000/svg">
<g clip-path="url(#clip0_10_10)">
<path d="M0 19.7061C24.0826 19.7061 43.0275 18.7025 61.6973 20.2991C67.4771 20.8008 74.8165 27.1871 77.7982 32.7978C112.523 98.3022 147.706 163.579 180.229 230.132C198.761 268.13 198.44 307.132 170.183 346.954C113.211 237.385 57.8899 131.009 0 19.7061Z" fill="#0F172A"/>
<path d="M256.514 177.583C233.394 135.205 214.495 96.7057 218.578 51.5459C221.009 24.1764 241.101 2.55449 265.184 0.228078C288.807 -2.05272 312.936 14.0041 318.761 37.2226C320.459 43.9737 320.642 52.7776 317.661 58.7989C298.532 97.3899 278.349 135.434 256.468 177.628L256.514 177.583Z" fill="#0F172A"/>
</g>
<defs>
<clipPath id="clip0_10_10">
<rect width="320" height="347" fill="white"/>
</clipPath>
</defs>
</svg>
