<svg width="700" height="320" viewBox="0 0 700 320" fill="none" xmlns="http://www.w3.org/2000/svg">
<rect width="700" height="320" rx="16" fill="#0F172A"/>
<g clip-path="url(#clip0_12_237)">
<path d="M257 70.4716C270.998 70.4716 282.01 69.8874 292.862 70.8168C296.221 71.1089 300.487 74.8265 302.22 78.0927C322.404 116.225 342.854 154.224 361.758 192.967C372.53 215.087 372.343 237.791 355.919 260.973C322.804 197.19 290.649 135.265 257 70.4716Z" fill="#E0E6EE"/>
<path d="M406.099 162.377C392.66 137.708 381.675 115.296 384.048 89.0066C385.462 73.0739 397.14 60.4871 411.138 59.1328C424.869 57.8051 438.894 67.1522 442.28 80.6685C443.267 84.5985 443.373 89.7236 441.64 93.2288C430.522 115.694 418.79 137.84 406.072 162.403L406.099 162.377Z" fill="#E0E6EE"/>
</g>
<defs>
<clipPath id="clip0_12_237">
<rect width="186" height="202" fill="white" transform="translate(257 59)"/>
</clipPath>
</defs>
</svg>
